<svg width="24" height="25" viewBox="0 0 24 25" fill="none" xmlns="http://www.w3.org/2000/svg">
<path d="M24 12.5C24 19.1278 18.6278 24.5 12 24.5C5.37223 24.5 0 19.1278 0 12.5C0 5.87223 5.37223 0.5 12 0.5C18.6278 0.5 24 5.87223 24 12.5Z" fill="black"/>
<path fill-rule="evenodd" clip-rule="evenodd" d="M5.15998 8.89579C4.82667 8.70751 4.41406 8.94832 4.41406 9.33114V15.6684C4.41406 16.0513 4.82667 16.2921 5.15998 16.1038L6.21198 15.5095C6.36898 15.4208 6.46606 15.2545 6.46606 15.0742V9.9254C6.46606 9.74509 6.36898 9.57875 6.21198 9.49006L5.15998 8.89579Z" fill="#FF3B30"/>
<path fill-rule="evenodd" clip-rule="evenodd" d="M5.41164 7.64797C5.07281 7.83945 5.07301 8.32757 5.41199 8.51877L6.45437 9.10671C6.60696 9.19278 6.79346 9.1927 6.94599 9.10652L11.5141 6.52526C11.671 6.43657 11.7681 6.27024 11.7681 6.08995V4.91267C11.7681 4.52981 11.3554 4.28901 11.0221 4.47737L5.41164 7.64797Z" fill="#FF3B30"/>
<path fill-rule="evenodd" clip-rule="evenodd" d="M12.2383 6.09009C12.2383 6.27031 12.3353 6.43657 12.4921 6.5253L17.0552 9.10634C17.2078 9.19263 17.3944 9.19274 17.547 9.10664L18.5902 8.51826C18.929 8.32717 18.9294 7.83942 18.591 7.64771L15.7919 6.06213L12.9841 4.47688C12.6508 4.28869 12.2383 4.52951 12.2383 4.91227V6.09009Z" fill="#FF3B30"/>
<path fill-rule="evenodd" clip-rule="evenodd" d="M17.7892 9.49006C17.6322 9.57875 17.5352 9.74509 17.5352 9.9254V15.0742C17.5352 15.2545 17.6322 15.4208 17.7892 15.5095L18.8412 16.1038C19.1745 16.2921 19.5872 16.0513 19.5872 15.6684V9.33114C19.5872 8.94832 19.1745 8.70751 18.8412 8.89579L17.7892 9.49006Z" fill="#FF3B30"/>
<path fill-rule="evenodd" clip-rule="evenodd" d="M17.5476 15.8937C17.3947 15.8071 17.2075 15.8071 17.0545 15.8937C15.5344 16.7551 14.0142 17.6128 12.492 18.4741C12.3352 18.5628 12.2383 18.7291 12.2383 18.9092V20.087C12.2383 20.4698 12.6509 20.7106 12.9842 20.5223L18.591 17.3555C18.9296 17.1643 18.9299 16.6768 18.5916 16.4851L17.5476 15.8937Z" fill="#FF3B30"/>
<path fill-rule="evenodd" clip-rule="evenodd" d="M11.7681 18.909C11.7681 18.729 11.6713 18.5628 11.5147 18.4741C9.99409 17.6125 8.47321 16.7546 6.94645 15.893C6.79367 15.8068 6.60688 15.8069 6.45424 15.8934L5.40999 16.485C5.07162 16.6766 5.072 17.1643 5.41068 17.3554L11.0223 20.5227C11.3556 20.7108 11.7681 20.47 11.7681 20.0873V18.909Z" fill="#FF3B30"/>
<path fill-rule="evenodd" clip-rule="evenodd" d="M6.9375 13.6163C6.9375 14.6976 7.51936 15.6952 8.46051 16.2275L10.524 17.3947C11.4401 17.9129 12.5606 17.9131 13.4769 17.3954L15.544 16.2273C16.4858 15.6952 17.0681 14.6972 17.0681 13.6155V11.3829C17.0681 10.3019 16.4866 9.30453 15.5458 8.77207L14.5317 8.19805L13.4779 7.60361C12.5611 7.08637 11.4402 7.08765 10.5239 7.60591C9.83612 7.99493 9.14819 8.38361 8.45997 8.77261C7.51897 9.3045 6.9375 10.3019 6.9375 11.3828V13.6163Z" fill="#FF3B30"/>
</svg>
